<mxfile host="Electron" agent="Mozilla/5.0 (Windows NT 10.0; Win64; x64) AppleWebKit/537.36 (KHTML, like Gecko) draw.io/24.7.17 Chrome/128.0.6613.36 Electron/32.0.1 Safari/537.36" version="24.7.17">
  <diagram name="Page-1" id="gVG3369ZlGNJTKH-8xix">
    <mxGraphModel dx="989" dy="582" grid="1" gridSize="10" guides="1" tooltips="1" connect="1" arrows="1" fold="1" page="1" pageScale="1" pageWidth="850" pageHeight="1100" math="0" shadow="0">
      <root>
        <mxCell id="0" />
        <mxCell id="1" parent="0" />
        <mxCell id="3ruTunnWBNSDRX2Llkky-146" value="Finance/CS Team Escalation" style="whiteSpace=wrap;strokeWidth=2;" vertex="1" parent="1">
          <mxGeometry x="2086" y="1090" width="183" height="67" as="geometry" />
        </mxCell>
        <mxCell id="3ruTunnWBNSDRX2Llkky-147" value="Risk Team Initial Assessment" style="whiteSpace=wrap;strokeWidth=2;" vertex="1" parent="1">
          <mxGeometry x="2089" y="1207" width="178" height="67" as="geometry" />
        </mxCell>
        <mxCell id="3ruTunnWBNSDRX2Llkky-148" value="Check for High-Value Deposits, Coin Mixing, and Money Laundering Risks" style="whiteSpace=wrap;strokeWidth=2;" vertex="1" parent="1">
          <mxGeometry x="2053" y="1323" width="249" height="84" as="geometry" />
        </mxCell>
        <mxCell id="3ruTunnWBNSDRX2Llkky-149" value="Is Activity High-Risk?" style="rhombus;strokeWidth=2;whiteSpace=wrap;" vertex="1" parent="1">
          <mxGeometry x="1951" y="1457" width="196" height="196" as="geometry" />
        </mxCell>
        <mxCell id="3ruTunnWBNSDRX2Llkky-150" value="Conclude Review and Notify Finance/CS" style="whiteSpace=wrap;strokeWidth=2;" vertex="1" parent="1">
          <mxGeometry x="840" y="3712" width="212" height="67" as="geometry" />
        </mxCell>
        <mxCell id="3ruTunnWBNSDRX2Llkky-151" value="Escalate to Fraud Team for Detailed Analysis" style="whiteSpace=wrap;strokeWidth=2;" vertex="1" parent="1">
          <mxGeometry x="2053" y="1726" width="253" height="67" as="geometry" />
        </mxCell>
        <mxCell id="3ruTunnWBNSDRX2Llkky-152" value="Fraud Team Checks User Account Details for Patterns and Similarities" style="whiteSpace=wrap;strokeWidth=2;" vertex="1" parent="1">
          <mxGeometry x="2062" y="1843" width="236" height="84" as="geometry" />
        </mxCell>
        <mxCell id="3ruTunnWBNSDRX2Llkky-153" value="Analyze for Similar Names, IPs, Devices, Documents, and Wallets" style="whiteSpace=wrap;strokeWidth=2;" vertex="1" parent="1">
          <mxGeometry x="2053" y="1977" width="254" height="84" as="geometry" />
        </mxCell>
        <mxCell id="3ruTunnWBNSDRX2Llkky-154" value="Suspicious Matches Found?" style="rhombus;strokeWidth=2;whiteSpace=wrap;" vertex="1" parent="1">
          <mxGeometry x="1922" y="2111" width="239" height="239" as="geometry" />
        </mxCell>
        <mxCell id="3ruTunnWBNSDRX2Llkky-155" value="Conclude Review and Notify Finance/CS" style="whiteSpace=wrap;strokeWidth=2;" vertex="1" parent="1">
          <mxGeometry x="1102" y="3712" width="212" height="67" as="geometry" />
        </mxCell>
        <mxCell id="3ruTunnWBNSDRX2Llkky-156" value="Escalate Back to Risk Team for Joint Review" style="whiteSpace=wrap;strokeWidth=2;" vertex="1" parent="1">
          <mxGeometry x="1984" y="2423" width="253" height="67" as="geometry" />
        </mxCell>
        <mxCell id="3ruTunnWBNSDRX2Llkky-157" value="Risk and Fraud Teams Collaborate on Final Assessment" style="whiteSpace=wrap;strokeWidth=2;" vertex="1" parent="1">
          <mxGeometry x="2004" y="2539" width="214" height="84" as="geometry" />
        </mxCell>
        <mxCell id="3ruTunnWBNSDRX2Llkky-158" value="Are Additional Documents Required?" style="rhombus;strokeWidth=2;whiteSpace=wrap;" vertex="1" parent="1">
          <mxGeometry x="1809" y="2674" width="253" height="253" as="geometry" />
        </mxCell>
        <mxCell id="3ruTunnWBNSDRX2Llkky-159" value="Document Findings and Restrict or Suspend Account if Necessary" style="whiteSpace=wrap;strokeWidth=2;" vertex="1" parent="1">
          <mxGeometry x="1364" y="3703" width="260" height="84" as="geometry" />
        </mxCell>
        <mxCell id="3ruTunnWBNSDRX2Llkky-160" value="Note: Leave detailed reason for restriction in user account as a Note based on findings." style="rounded=1;whiteSpace=wrap;arcSize=50;strokeWidth=2;" vertex="1" parent="1">
          <mxGeometry x="973" y="3838" width="228" height="87" as="geometry" />
        </mxCell>
        <mxCell id="3ruTunnWBNSDRX2Llkky-161" value="Escalate to KYC Team for Document Verification" style="whiteSpace=wrap;strokeWidth=2;" vertex="1" parent="1">
          <mxGeometry x="1965" y="3000" width="241" height="67" as="geometry" />
        </mxCell>
        <mxCell id="3ruTunnWBNSDRX2Llkky-162" value="KYC Team Reviews ID, Address, and Source of Funds" style="whiteSpace=wrap;strokeWidth=2;" vertex="1" parent="1">
          <mxGeometry x="1972" y="3116" width="226" height="84" as="geometry" />
        </mxCell>
        <mxCell id="3ruTunnWBNSDRX2Llkky-163" value="Cross-Check with Linked Accounts" style="whiteSpace=wrap;strokeWidth=2;" vertex="1" parent="1">
          <mxGeometry x="1968" y="3273" width="235" height="67" as="geometry" />
        </mxCell>
        <mxCell id="3ruTunnWBNSDRX2Llkky-164" value="Is Documentation Verified?" style="rhombus;strokeWidth=2;whiteSpace=wrap;" vertex="1" parent="1">
          <mxGeometry x="1821" y="3390" width="240" height="240" as="geometry" />
        </mxCell>
        <mxCell id="3ruTunnWBNSDRX2Llkky-165" value="Notify Risk and Fraud Teams; Resume User Operations if Permissible" style="whiteSpace=wrap;strokeWidth=2;" vertex="1" parent="1">
          <mxGeometry x="1674" y="3703" width="239" height="84" as="geometry" />
        </mxCell>
        <mxCell id="3ruTunnWBNSDRX2Llkky-166" value="Permanent Suspension and Notify All Relevant Teams" style="whiteSpace=wrap;strokeWidth=2;" vertex="1" parent="1">
          <mxGeometry x="1963" y="3712" width="251" height="67" as="geometry" />
        </mxCell>
        <mxCell id="3ruTunnWBNSDRX2Llkky-167" value="End" style="whiteSpace=wrap;strokeWidth=2;" vertex="1" parent="1">
          <mxGeometry x="1578" y="3857" width="86" height="49" as="geometry" />
        </mxCell>
        <mxCell id="3ruTunnWBNSDRX2Llkky-168" value="Risk Team checks for high-value deposits, coin mixing, and AML risks before passing to Fraud Team." style="rounded=1;whiteSpace=wrap;arcSize=50;strokeWidth=2;" vertex="1" parent="1">
          <mxGeometry x="2197" y="1503" width="220" height="104" as="geometry" />
        </mxCell>
        <mxCell id="3ruTunnWBNSDRX2Llkky-169" value="Fraud Team checks for patterns in names, IPs, devices, documents, and wallets." style="rounded=1;whiteSpace=wrap;arcSize=50;strokeWidth=2;" vertex="1" parent="1">
          <mxGeometry x="2211" y="2187" width="215" height="87" as="geometry" />
        </mxCell>
        <mxCell id="3ruTunnWBNSDRX2Llkky-170" value="Risk and Fraud collaborate on assessment and determine if KYC is needed." style="rounded=1;whiteSpace=wrap;arcSize=50;strokeWidth=2;" vertex="1" parent="1">
          <mxGeometry x="2112" y="2757" width="228" height="87" as="geometry" />
        </mxCell>
        <mxCell id="3ruTunnWBNSDRX2Llkky-171" value="KYC verifies documents and checks consistency across accounts. Results shared with Risk and Fraud." style="rounded=1;whiteSpace=wrap;arcSize=50;strokeWidth=2;" vertex="1" parent="1">
          <mxGeometry x="2112" y="3467" width="236" height="87" as="geometry" />
        </mxCell>
        <mxCell id="3ruTunnWBNSDRX2Llkky-172" value="" style="curved=1;startArrow=none;endArrow=block;exitX=0.5;exitY=0.99;entryX=0.5;entryY=-0.01;rounded=0;" edge="1" parent="1" source="3ruTunnWBNSDRX2Llkky-146" target="3ruTunnWBNSDRX2Llkky-147">
          <mxGeometry relative="1" as="geometry">
            <Array as="points" />
          </mxGeometry>
        </mxCell>
        <mxCell id="3ruTunnWBNSDRX2Llkky-173" value="" style="curved=1;startArrow=none;endArrow=block;exitX=0.5;exitY=0.99;entryX=0.5;entryY=0;rounded=0;" edge="1" parent="1" source="3ruTunnWBNSDRX2Llkky-147" target="3ruTunnWBNSDRX2Llkky-148">
          <mxGeometry relative="1" as="geometry">
            <Array as="points" />
          </mxGeometry>
        </mxCell>
        <mxCell id="3ruTunnWBNSDRX2Llkky-174" value="" style="curved=1;startArrow=none;endArrow=block;exitX=0.18;exitY=1;entryX=0.5;entryY=0;rounded=0;" edge="1" parent="1" source="3ruTunnWBNSDRX2Llkky-148" target="3ruTunnWBNSDRX2Llkky-149">
          <mxGeometry relative="1" as="geometry">
            <Array as="points">
              <mxPoint x="2049" y="1432" />
            </Array>
          </mxGeometry>
        </mxCell>
        <mxCell id="3ruTunnWBNSDRX2Llkky-175" value="No" style="curved=1;startArrow=none;endArrow=block;exitX=0;exitY=0.56;entryX=0.5;entryY=0;rounded=0;" edge="1" parent="1" source="3ruTunnWBNSDRX2Llkky-149" target="3ruTunnWBNSDRX2Llkky-150">
          <mxGeometry relative="1" as="geometry">
            <Array as="points">
              <mxPoint x="946" y="1690" />
            </Array>
          </mxGeometry>
        </mxCell>
        <mxCell id="3ruTunnWBNSDRX2Llkky-176" value="Yes" style="curved=1;startArrow=none;endArrow=block;exitX=0.99;exitY=1;entryX=0.5;entryY=0;rounded=0;" edge="1" parent="1" source="3ruTunnWBNSDRX2Llkky-149" target="3ruTunnWBNSDRX2Llkky-151">
          <mxGeometry relative="1" as="geometry">
            <Array as="points">
              <mxPoint x="2180" y="1690" />
            </Array>
          </mxGeometry>
        </mxCell>
        <mxCell id="3ruTunnWBNSDRX2Llkky-177" value="" style="curved=1;startArrow=none;endArrow=block;exitX=0.5;exitY=1;entryX=0.5;entryY=0;rounded=0;" edge="1" parent="1" source="3ruTunnWBNSDRX2Llkky-151" target="3ruTunnWBNSDRX2Llkky-152">
          <mxGeometry relative="1" as="geometry">
            <Array as="points" />
          </mxGeometry>
        </mxCell>
        <mxCell id="3ruTunnWBNSDRX2Llkky-178" value="" style="curved=1;startArrow=none;endArrow=block;exitX=0.5;exitY=1;entryX=0.5;entryY=0;rounded=0;" edge="1" parent="1" source="3ruTunnWBNSDRX2Llkky-152" target="3ruTunnWBNSDRX2Llkky-153">
          <mxGeometry relative="1" as="geometry">
            <Array as="points" />
          </mxGeometry>
        </mxCell>
        <mxCell id="3ruTunnWBNSDRX2Llkky-179" value="" style="curved=1;startArrow=none;endArrow=block;exitX=0.16;exitY=1;entryX=0.5;entryY=0;rounded=0;" edge="1" parent="1" source="3ruTunnWBNSDRX2Llkky-153" target="3ruTunnWBNSDRX2Llkky-154">
          <mxGeometry relative="1" as="geometry">
            <Array as="points">
              <mxPoint x="2042" y="2086" />
            </Array>
          </mxGeometry>
        </mxCell>
        <mxCell id="3ruTunnWBNSDRX2Llkky-180" value="No" style="curved=1;startArrow=none;endArrow=block;exitX=0;exitY=0.59;entryX=0.5;entryY=0;rounded=0;" edge="1" parent="1" source="3ruTunnWBNSDRX2Llkky-154" target="3ruTunnWBNSDRX2Llkky-155">
          <mxGeometry relative="1" as="geometry">
            <Array as="points">
              <mxPoint x="1208" y="2386" />
            </Array>
          </mxGeometry>
        </mxCell>
        <mxCell id="3ruTunnWBNSDRX2Llkky-181" value="Yes" style="curved=1;startArrow=none;endArrow=block;exitX=0.72;exitY=1;entryX=0.5;entryY=0;rounded=0;" edge="1" parent="1" source="3ruTunnWBNSDRX2Llkky-154" target="3ruTunnWBNSDRX2Llkky-156">
          <mxGeometry relative="1" as="geometry">
            <Array as="points">
              <mxPoint x="2111" y="2386" />
            </Array>
          </mxGeometry>
        </mxCell>
        <mxCell id="3ruTunnWBNSDRX2Llkky-182" value="" style="curved=1;startArrow=none;endArrow=block;exitX=0.5;exitY=0.99;entryX=0.5;entryY=0;rounded=0;" edge="1" parent="1" source="3ruTunnWBNSDRX2Llkky-156" target="3ruTunnWBNSDRX2Llkky-157">
          <mxGeometry relative="1" as="geometry">
            <Array as="points" />
          </mxGeometry>
        </mxCell>
        <mxCell id="3ruTunnWBNSDRX2Llkky-183" value="" style="curved=1;startArrow=none;endArrow=block;exitX=0;exitY=0.99;entryX=0.5;entryY=0;rounded=0;" edge="1" parent="1" source="3ruTunnWBNSDRX2Llkky-157" target="3ruTunnWBNSDRX2Llkky-158">
          <mxGeometry relative="1" as="geometry">
            <Array as="points">
              <mxPoint x="1936" y="2649" />
            </Array>
          </mxGeometry>
        </mxCell>
        <mxCell id="3ruTunnWBNSDRX2Llkky-184" value="No" style="curved=1;startArrow=none;endArrow=block;exitX=0;exitY=0.68;entryX=0.5;entryY=0.01;rounded=0;" edge="1" parent="1" source="3ruTunnWBNSDRX2Llkky-158" target="3ruTunnWBNSDRX2Llkky-159">
          <mxGeometry relative="1" as="geometry">
            <Array as="points">
              <mxPoint x="1494" y="2963" />
            </Array>
          </mxGeometry>
        </mxCell>
        <mxCell id="3ruTunnWBNSDRX2Llkky-185" value="" style="curved=1;startArrow=none;endArrow=block;exitX=0.18;exitY=1.01;entryX=1;entryY=0.17;rounded=0;" edge="1" parent="1" source="3ruTunnWBNSDRX2Llkky-159" target="3ruTunnWBNSDRX2Llkky-160">
          <mxGeometry relative="1" as="geometry">
            <Array as="points">
              <mxPoint x="1361" y="3813" />
            </Array>
          </mxGeometry>
        </mxCell>
        <mxCell id="3ruTunnWBNSDRX2Llkky-186" value="Yes" style="curved=1;startArrow=none;endArrow=block;exitX=0.96;exitY=1;entryX=0.5;entryY=0;rounded=0;" edge="1" parent="1" source="3ruTunnWBNSDRX2Llkky-158" target="3ruTunnWBNSDRX2Llkky-161">
          <mxGeometry relative="1" as="geometry">
            <Array as="points">
              <mxPoint x="2086" y="2963" />
            </Array>
          </mxGeometry>
        </mxCell>
        <mxCell id="3ruTunnWBNSDRX2Llkky-187" value="" style="curved=1;startArrow=none;endArrow=block;exitX=0.5;exitY=0.99;entryX=0.5;entryY=0;rounded=0;" edge="1" parent="1" source="3ruTunnWBNSDRX2Llkky-161" target="3ruTunnWBNSDRX2Llkky-162">
          <mxGeometry relative="1" as="geometry">
            <Array as="points" />
          </mxGeometry>
        </mxCell>
        <mxCell id="3ruTunnWBNSDRX2Llkky-188" value="" style="curved=1;startArrow=none;endArrow=block;exitX=0.5;exitY=1.01;entryX=0.5;entryY=0.01;rounded=0;" edge="1" parent="1" source="3ruTunnWBNSDRX2Llkky-162" target="3ruTunnWBNSDRX2Llkky-163">
          <mxGeometry relative="1" as="geometry">
            <Array as="points" />
          </mxGeometry>
        </mxCell>
        <mxCell id="3ruTunnWBNSDRX2Llkky-189" value="" style="curved=1;startArrow=none;endArrow=block;exitX=0.15;exitY=1;entryX=0.5;entryY=0;rounded=0;" edge="1" parent="1" source="3ruTunnWBNSDRX2Llkky-163" target="3ruTunnWBNSDRX2Llkky-164">
          <mxGeometry relative="1" as="geometry">
            <Array as="points">
              <mxPoint x="1941" y="3365" />
            </Array>
          </mxGeometry>
        </mxCell>
        <mxCell id="3ruTunnWBNSDRX2Llkky-190" value="Yes" style="curved=1;startArrow=none;endArrow=block;exitX=0.03;exitY=1;entryX=0.5;entryY=0.01;rounded=0;" edge="1" parent="1" source="3ruTunnWBNSDRX2Llkky-164" target="3ruTunnWBNSDRX2Llkky-165">
          <mxGeometry relative="1" as="geometry">
            <Array as="points">
              <mxPoint x="1794" y="3667" />
            </Array>
          </mxGeometry>
        </mxCell>
        <mxCell id="3ruTunnWBNSDRX2Llkky-191" value="No" style="curved=1;startArrow=none;endArrow=block;exitX=0.97;exitY=1;entryX=0.5;entryY=0;rounded=0;" edge="1" parent="1" source="3ruTunnWBNSDRX2Llkky-164" target="3ruTunnWBNSDRX2Llkky-166">
          <mxGeometry relative="1" as="geometry">
            <Array as="points">
              <mxPoint x="2089" y="3667" />
            </Array>
          </mxGeometry>
        </mxCell>
        <mxCell id="3ruTunnWBNSDRX2Llkky-192" value="" style="curved=1;startArrow=none;endArrow=block;exitX=0.5;exitY=1;entryX=0;entryY=0.4;rounded=0;" edge="1" parent="1" source="3ruTunnWBNSDRX2Llkky-150" target="3ruTunnWBNSDRX2Llkky-167">
          <mxGeometry relative="1" as="geometry">
            <Array as="points">
              <mxPoint x="946" y="3813" />
            </Array>
          </mxGeometry>
        </mxCell>
        <mxCell id="3ruTunnWBNSDRX2Llkky-193" value="" style="curved=1;startArrow=none;endArrow=block;exitX=0.5;exitY=1;entryX=0;entryY=0.35;rounded=0;" edge="1" parent="1" source="3ruTunnWBNSDRX2Llkky-155" target="3ruTunnWBNSDRX2Llkky-167">
          <mxGeometry relative="1" as="geometry">
            <Array as="points">
              <mxPoint x="1208" y="3813" />
            </Array>
          </mxGeometry>
        </mxCell>
        <mxCell id="3ruTunnWBNSDRX2Llkky-194" value="" style="curved=1;startArrow=none;endArrow=block;exitX=0.84;exitY=1.01;entryX=0.56;entryY=-0.01;rounded=0;" edge="1" parent="1" source="3ruTunnWBNSDRX2Llkky-159" target="3ruTunnWBNSDRX2Llkky-167">
          <mxGeometry relative="1" as="geometry">
            <Array as="points">
              <mxPoint x="1634" y="3813" />
            </Array>
          </mxGeometry>
        </mxCell>
        <mxCell id="3ruTunnWBNSDRX2Llkky-195" value="" style="curved=1;startArrow=none;endArrow=block;exitX=0.5;exitY=1.01;entryX=1;entryY=0.14;rounded=0;" edge="1" parent="1" source="3ruTunnWBNSDRX2Llkky-165" target="3ruTunnWBNSDRX2Llkky-167">
          <mxGeometry relative="1" as="geometry">
            <Array as="points">
              <mxPoint x="1794" y="3813" />
            </Array>
          </mxGeometry>
        </mxCell>
        <mxCell id="3ruTunnWBNSDRX2Llkky-196" value="" style="curved=1;startArrow=none;endArrow=block;exitX=0.5;exitY=1;entryX=1;entryY=0.36;rounded=0;" edge="1" parent="1" source="3ruTunnWBNSDRX2Llkky-166" target="3ruTunnWBNSDRX2Llkky-167">
          <mxGeometry relative="1" as="geometry">
            <Array as="points">
              <mxPoint x="2089" y="3813" />
            </Array>
          </mxGeometry>
        </mxCell>
        <mxCell id="3ruTunnWBNSDRX2Llkky-197" value="" style="curved=1;startArrow=none;endArrow=block;exitX=0.83;exitY=1;entryX=0.5;entryY=0;rounded=0;" edge="1" parent="1" source="3ruTunnWBNSDRX2Llkky-148" target="3ruTunnWBNSDRX2Llkky-168">
          <mxGeometry relative="1" as="geometry">
            <Array as="points">
              <mxPoint x="2307" y="1432" />
            </Array>
          </mxGeometry>
        </mxCell>
        <mxCell id="3ruTunnWBNSDRX2Llkky-198" value="" style="curved=1;startArrow=none;endArrow=block;exitX=0.84;exitY=1;entryX=0.5;entryY=0;rounded=0;" edge="1" parent="1" source="3ruTunnWBNSDRX2Llkky-153" target="3ruTunnWBNSDRX2Llkky-169">
          <mxGeometry relative="1" as="geometry">
            <Array as="points">
              <mxPoint x="2319" y="2086" />
            </Array>
          </mxGeometry>
        </mxCell>
        <mxCell id="3ruTunnWBNSDRX2Llkky-199" value="" style="curved=1;startArrow=none;endArrow=block;exitX=0.84;exitY=1.01;entryX=0.5;entryY=0;rounded=0;" edge="1" parent="1" source="3ruTunnWBNSDRX2Llkky-157" target="3ruTunnWBNSDRX2Llkky-170">
          <mxGeometry relative="1" as="geometry">
            <Array as="points">
              <mxPoint x="2226" y="2649" />
            </Array>
          </mxGeometry>
        </mxCell>
        <mxCell id="3ruTunnWBNSDRX2Llkky-200" value="" style="curved=1;startArrow=none;endArrow=block;exitX=0.85;exitY=1;entryX=0.5;entryY=0;rounded=0;" edge="1" parent="1" source="3ruTunnWBNSDRX2Llkky-163" target="3ruTunnWBNSDRX2Llkky-171">
          <mxGeometry relative="1" as="geometry">
            <Array as="points">
              <mxPoint x="2230" y="3365" />
            </Array>
          </mxGeometry>
        </mxCell>
      </root>
    </mxGraphModel>
  </diagram>
</mxfile>
